@startuml Mushroom Body Statechart
title MushroomBody States

hide empty description


state Alive {

state NormalMushroomBody
state AdvancedMushroomBody

[*] -> NormalMushroomBody
NormalMushroomBody -down-> AdvancedMushroomBody : [age >= advancedAge]
}

state Dead

[*] -> Alive
Alive -> Alive: distibuteSpore() / sporesRemaining--;
Alive -down-> Dead: [sporesRemaining <= 0]

Dead -> [*]

@enduml